PathFileType	4	(X/Y/Z)	./resultDataOpenSim/trcMotMarkerGrf/sub10/qtm-01-04.trc
DataRate	CameraRate	NumFrames	NumMarkers	Units	OrigDataRate	OrigDataStartFrame	OrigNumFrames
250.000000	250.000000	6	24	m	250.000000	409	467
Frame#	Time	L.Toe.Tip			R.Toe.Tip			L.Ankle.Lat			R.Ankle.Lat			L.Ankle.Med			R.Ankle.Med			L.Heel			R.Heel			L.Knee.Lat			R.Knee.Lat			L.Knee.Med			R.Knee.Med			L.Thigh.Upper			R.Thigh.Upper			L.ASIS			R.ASIS			V.Sacral			L.Acromium			R.Acromium			C7			L.Elbow			R.Elbow			L.Wrist.Lat			R.Wrist.Lat
		X1	Y1	Z1	X2	Y2	Z2	X3	Y3	Z3	X4	Y4	Z4	X5	Y5	Z5	X6	Y6	Z6	X7	Y7	Z7	X8	Y8	Z8	X9	Y9	Z9	X10	Y10	Z10	X11	Y11	Z11	X12	Y12	Z12	X13	Y13	Z13	X14	Y14	Z14	X15	Y15	Z15	X16	Y16	Z16	X17	Y17	Z17	X18	Y18	Z18	X19	Y19	Z19	X20	Y20	Z20	X21	Y21	Z21	X22	Y22	Z22	X23	Y23	Z23	X24	Y24	Z24

409	1.632	1.6425471	0.12442165	-0.17557117	0.87933141	0.039078359	-0.048161445	1.5159044	0.084927818	-0.20066187	0.75787741	0.098349271	0.00075891502	1.520312	0.11353636	-0.1207571	0.77946159	0.11860915	-0.084917872	1.475277	0.028914529	-0.15304282	0.69766779	0.094272043	-0.041869272	1.3734711	0.45184726	-0.22811019	0.97762408	0.43440726	0.033943657	1.3894743	0.42940194	-0.1084216	1.0029604	0.43285175	-0.092402731	1.2216041	0.80273294	-0.28427551	1.0891687	0.83061563	0.08191314	1.2543178	0.91253631	-0.2024887	1.1845714	0.91275929	0.044978567	1.029835	0.91383737	-0.14312488	1.1319318	1.3792429	-0.25354233	1.1064882	1.3740842	0.069674021	1.0311627	1.3992416	-0.10376316	0.9761813	1.086106	-0.32279656	1.1682431	1.0287582	0.14715498	1.0091212	0.85557579	-0.39881226	1.4129172	0.96973584	0.13806304
410	1.636	1.6460705	0.12132763	-0.17552303	0.87987268	0.039129023	-0.048358967	1.5190911	0.082863468	-0.20006673	0.76011866	0.10120431	0.0011441108	1.5237654	0.11130085	-0.12048088	0.78189605	0.1208004	-0.08465675	1.4780278	0.027323526	-0.15244178	0.69972107	0.09811984	-0.041586917	1.380713	0.45136574	-0.22834064	0.98389709	0.4341491	0.033423986	1.3972249	0.42963021	-0.10862397	1.0095345	0.43244557	-0.092826838	1.2287656	0.80301533	-0.28499446	1.0969517	0.82952636	0.081295665	1.2617428	0.91287484	-0.20300887	1.1918555	0.91194858	0.044609836	1.0372969	0.91349064	-0.14324133	1.1382643	1.378447	-0.25442412	1.1124771	1.3739292	0.06878466	1.0373447	1.3986523	-0.10473889	0.98277727	1.0854393	-0.32326259	1.1752081	1.0287646	0.14580726	1.0146725	0.8548087	-0.39993689	1.4197153	0.96934638	0.13660063
411	1.64	1.6493818	0.11808706	-0.17537585	0.88045623	0.039116854	-0.048672044	1.5220616	0.080740057	-0.19942689	0.7624645	0.10414049	0.0014471188	1.5270734	0.10909347	-0.12009679	0.78453177	0.12306394	-0.084441748	1.4806387	0.025677497	-0.1516783	0.701948	0.10212827	-0.041413351	1.3877659	0.45080247	-0.22860461	0.99034602	0.43391169	0.032892076	1.4048531	0.42981429	-0.10888143	1.0162792	0.43208126	-0.093269155	1.2360269	0.80329995	-0.28570756	1.1045768	0.82858755	0.080620762	1.2691907	0.91329599	-0.20353352	1.1992623	0.91114961	0.044202821	1.0447167	0.91320714	-0.14355298	1.1446087	1.3777018	-0.25532543	1.1184682	1.3738097	0.067863613	1.0435412	1.3980882	-0.10574217	0.98940071	1.0847947	-0.32370128	1.1821068	1.0287924	0.14444043	1.0203693	0.85406471	-0.4010417	1.4263985	0.96888754	0.13515864
412	1.644	1.6524801	0.11473518	-0.1751277	0.88104871	0.039080115	-0.048965298	1.5248287	0.07857835	-0.1987589	0.76484882	0.10709176	0.0016135901	1.5301889	0.10691195	-0.11963493	0.78738876	0.12538684	-0.084276711	1.4830817	0.024038036	-0.15079099	0.70436527	0.10629204	-0.041344133	1.3946043	0.45016687	-0.22888439	0.99700193	0.43368143	0.03234472	1.4123822	0.42994034	-0.10918388	1.0232091	0.43174267	-0.093734209	1.2433795	0.80358556	-0.28640397	1.1121274	0.82770357	0.07996931	1.2766702	0.91378261	-0.2040887	1.2067919	0.91036506	0.043758553	1.0521754	0.912984	-0.14394154	1.1509617	1.3770011	-0.25624052	1.1244789	1.3737195	0.066904071	1.0497479	1.3975399	-0.10678119	0.99608916	1.0841532	-0.32415367	1.1889355	1.0288542	0.14303842	1.0262232	0.85333975	-0.40212467	1.432969	0.96836042	0.13374153
413	1.648	1.6553713	0.11132641	-0.17477912	0.88164733	0.039042245	-0.049140085	1.5274111	0.076404569	-0.19809068	0.76727413	0.11003147	0.0015923618	1.5330754	0.10472683	-0.1191254	0.79048773	0.12775021	-0.084163836	1.485195	0.022562386	-0.14995643	0.70702511	0.11056896	-0.041410985	1.4012483	0.44946611	-0.22917277	1.0039516	0.4334206	0.031771586	1.4198183	0.4299919	-0.10952161	1.0303378	0.43141092	-0.094215127	1.2508084	0.80386686	-0.2870689	1.1195998	0.82681873	0.07940174	1.2841926	0.91432047	-0.20469331	1.2144368	0.90959605	0.043282968	1.0597527	0.91282222	-0.14422229	1.1573222	1.3763438	-0.25716592	1.1305123	1.3736615	0.065899437	1.0559568	1.397	-0.10785546	1.0028837	1.0834963	-0.32466834	1.1956796	1.0289555	0.14159018	1.0322398	0.85262493	-0.40317132	1.4394266	0.96777122	0.13235806
414	1.652	1.6581043	0.10786991	-0.17432756	0.88227206	0.039002549	-0.049218677	1.5298503	0.074247637	-0.19747631	0.7698164	0.11296589	0.0013429316	1.5357382	0.1025067	-0.11859	0.79384655	0.13013164	-0.084107136	1.4868302	0.02142239	-0.14934616	0.70998006	0.11491139	-0.041665493	1.4077365	0.44870662	-0.2294701	1.0113164	0.43308373	0.031162042	1.4271354	0.42995359	-0.1098946	1.0376715	0.43106229	-0.094698969	1.2583137	0.80414163	-0.28769253	1.1271004	0.82592286	0.078903411	1.2917657	0.91489228	-0.20533714	1.2221922	0.90884056	0.042771333	1.0674737	0.91272475	-0.14431606	1.1636916	1.375727	-0.25810133	1.1365597	1.3736332	0.064853923	1.0621682	1.3964567	-0.10894906	1.0097554	1.0828356	-0.32522697	1.2023229	1.0290957	0.14010457	1.0384195	0.85190898	-0.40416309	1.4457695	0.96712337	0.13101258
